<mxfile host="65bd71144e">
    <diagram id="n126Bj_RKUmEa4F5O5X0" name="FLOW CHART">
        <mxGraphModel dx="2505" dy="2127" grid="1" gridSize="10" guides="1" tooltips="1" connect="1" arrows="1" fold="1" page="1" pageScale="1" pageWidth="827" pageHeight="1169" math="0" shadow="0">
            <root>
                <mxCell id="0"/>
                <mxCell id="1" parent="0"/>
                <mxCell id="o01LwvFQtVRLgtBo7qC8-111" value="" style="edgeStyle=orthogonalEdgeStyle;rounded=0;orthogonalLoop=1;jettySize=auto;html=1;fontFamily=Courier New;fontSize=12;fontColor=#f0f0f0;" edge="1" parent="1" source="39" target="19">
                    <mxGeometry relative="1" as="geometry">
                        <Array as="points">
                            <mxPoint x="375" y="790"/>
                            <mxPoint x="375" y="790"/>
                        </Array>
                    </mxGeometry>
                </mxCell>
                <mxCell id="39" value="" style="rounded=1;whiteSpace=wrap;html=1;strokeColor=#CC0066;" parent="1" vertex="1">
                    <mxGeometry x="-40" y="840" width="890" height="430" as="geometry"/>
                </mxCell>
                <mxCell id="o01LwvFQtVRLgtBo7qC8-56" value="RawRequestReader&lt;br&gt;&lt;br&gt;read 로&amp;nbsp;raw_request 를 받아와서&lt;br&gt;내부적으로 start line, headers, body 파싱" style="rounded=1;whiteSpace=wrap;html=1;absoluteArcSize=1;arcSize=14;strokeWidth=2;verticalAlign=top;" vertex="1" parent="1">
                    <mxGeometry y="853" width="430" height="407" as="geometry"/>
                </mxCell>
                <mxCell id="19" value="" style="rounded=1;whiteSpace=wrap;html=1;strokeColor=#0000CC;" parent="1" vertex="1">
                    <mxGeometry x="-40" y="-80" width="1070" height="790" as="geometry"/>
                </mxCell>
                <mxCell id="lU_j6ZDFAQMpKRKnnjfW-69" style="edgeStyle=orthogonalEdgeStyle;rounded=0;orthogonalLoop=1;jettySize=auto;html=1;" edge="1" parent="1" source="2" target="lU_j6ZDFAQMpKRKnnjfW-68">
                    <mxGeometry relative="1" as="geometry"/>
                </mxCell>
                <mxCell id="2" value="error" style="ellipse;whiteSpace=wrap;html=1;aspect=fixed;" parent="1" vertex="1">
                    <mxGeometry x="230" y="30" width="80" height="80" as="geometry"/>
                </mxCell>
                <mxCell id="36" style="edgeStyle=orthogonalEdgeStyle;rounded=0;orthogonalLoop=1;jettySize=auto;html=1;" parent="1" target="7" edge="1">
                    <mxGeometry relative="1" as="geometry">
                        <Array as="points">
                            <mxPoint x="125" y="130"/>
                            <mxPoint x="330" y="130"/>
                        </Array>
                        <mxPoint x="125.02857142857147" y="99.98476190476185" as="sourcePoint"/>
                    </mxGeometry>
                </mxCell>
                <mxCell id="38" style="edgeStyle=orthogonalEdgeStyle;rounded=0;orthogonalLoop=1;jettySize=auto;html=1;" parent="1" source="lU_j6ZDFAQMpKRKnnjfW-100" edge="1" target="2">
                    <mxGeometry relative="1" as="geometry">
                        <mxPoint x="690" y="60" as="targetPoint"/>
                        <mxPoint x="200" y="60" as="sourcePoint"/>
                    </mxGeometry>
                </mxCell>
                <mxCell id="lU_j6ZDFAQMpKRKnnjfW-71" style="edgeStyle=orthogonalEdgeStyle;rounded=0;orthogonalLoop=1;jettySize=auto;html=1;exitX=0.5;exitY=1;exitDx=0;exitDy=0;" edge="1" parent="1" source="20" target="F5cFHGVok0kFbbtlpRkR-53">
                    <mxGeometry relative="1" as="geometry">
                        <mxPoint x="215" y="324" as="targetPoint"/>
                        <mxPoint x="130" y="380" as="sourcePoint"/>
                        <Array as="points">
                            <mxPoint x="80" y="324"/>
                        </Array>
                    </mxGeometry>
                </mxCell>
                <mxCell id="lU_j6ZDFAQMpKRKnnjfW-98" style="edgeStyle=orthogonalEdgeStyle;rounded=0;orthogonalLoop=1;jettySize=auto;html=1;" edge="1" parent="1" source="F5cFHGVok0kFbbtlpRkR-53" target="lU_j6ZDFAQMpKRKnnjfW-78">
                    <mxGeometry relative="1" as="geometry">
                        <mxPoint x="370" y="320" as="sourcePoint"/>
                    </mxGeometry>
                </mxCell>
                <mxCell id="lU_j6ZDFAQMpKRKnnjfW-94" style="edgeStyle=orthogonalEdgeStyle;rounded=0;orthogonalLoop=1;jettySize=auto;html=1;exitX=0.5;exitY=1;exitDx=0;exitDy=0;" edge="1" parent="1" source="20" target="UY9-4zruVd4tcD86wkYn-58">
                    <mxGeometry relative="1" as="geometry">
                        <Array as="points">
                            <mxPoint x="80" y="510"/>
                        </Array>
                        <mxPoint x="230.11851851851816" y="665.0666666666666" as="targetPoint"/>
                    </mxGeometry>
                </mxCell>
                <mxCell id="20" value="kqueue 생성,&lt;br&gt;각 종 socket" style="rounded=0;whiteSpace=wrap;html=1;" parent="1" vertex="1">
                    <mxGeometry y="170" width="160" height="60" as="geometry"/>
                </mxCell>
                <mxCell id="30" value="request 저장" style="text;html=1;strokeColor=none;fillColor=none;align=center;verticalAlign=middle;whiteSpace=wrap;rounded=0;" parent="1" vertex="1">
                    <mxGeometry x="740" y="110" width="80" height="20" as="geometry"/>
                </mxCell>
                <mxCell id="35" style="edgeStyle=orthogonalEdgeStyle;rounded=0;orthogonalLoop=1;jettySize=auto;html=1;exitX=1;exitY=0.5;exitDx=0;exitDy=0;" parent="1" source="aanPXfUzpohmq_zLsnBv-63" target="22" edge="1">
                    <mxGeometry relative="1" as="geometry">
                        <mxPoint x="869.99" y="370" as="targetPoint"/>
                        <Array as="points">
                            <mxPoint x="870" y="510"/>
                        </Array>
                        <mxPoint x="390" y="665" as="sourcePoint"/>
                    </mxGeometry>
                </mxCell>
                <mxCell id="42" value="read(buffer[1024])&lt;br&gt;1) ReadHeader&lt;br&gt;2) ReadBody" style="rounded=0;whiteSpace=wrap;html=1;" parent="1" vertex="1">
                    <mxGeometry x="10" y="920" width="240" height="150" as="geometry"/>
                </mxCell>
                <mxCell id="44" value="client&amp;nbsp;&lt;br&gt;request queue (에 저장)" style="rounded=0;whiteSpace=wrap;html=1;" parent="1" vertex="1">
                    <mxGeometry x="651" y="919" width="160" height="150" as="geometry"/>
                </mxCell>
                <mxCell id="UY9-4zruVd4tcD86wkYn-65" value="" style="edgeStyle=orthogonalEdgeStyle;rounded=0;orthogonalLoop=1;jettySize=auto;html=1;" edge="1" parent="1" target="22">
                    <mxGeometry relative="1" as="geometry">
                        <mxPoint x="790" y="110" as="sourcePoint"/>
                    </mxGeometry>
                </mxCell>
                <mxCell id="UY9-4zruVd4tcD86wkYn-53" style="edgeStyle=orthogonalEdgeStyle;rounded=0;orthogonalLoop=1;jettySize=auto;html=1;entryX=0.333;entryY=0.25;entryDx=0;entryDy=0;entryPerimeter=0;" edge="1" parent="1" source="UY9-4zruVd4tcD86wkYn-52">
                    <mxGeometry relative="1" as="geometry">
                        <Array as="points">
                            <mxPoint x="60" y="30"/>
                            <mxPoint x="100" y="30"/>
                        </Array>
                        <mxPoint x="99.95000000000005" y="40" as="targetPoint"/>
                    </mxGeometry>
                </mxCell>
                <mxCell id="UY9-4zruVd4tcD86wkYn-52" value="start" style="ellipse;whiteSpace=wrap;html=1;aspect=fixed;" vertex="1" parent="1">
                    <mxGeometry x="20" y="-70" width="80" height="80" as="geometry"/>
                </mxCell>
                <mxCell id="lU_j6ZDFAQMpKRKnnjfW-67" value="" style="group" vertex="1" connectable="0" parent="1">
                    <mxGeometry x="750" y="160" width="220" height="60" as="geometry"/>
                </mxCell>
                <mxCell id="22" value="client&lt;br&gt;request&lt;br&gt;response" style="rounded=0;whiteSpace=wrap;html=1;" parent="lU_j6ZDFAQMpKRKnnjfW-67" vertex="1">
                    <mxGeometry width="160" height="60" as="geometry"/>
                </mxCell>
                <mxCell id="48" value="..." style="rounded=0;whiteSpace=wrap;html=1;" parent="lU_j6ZDFAQMpKRKnnjfW-67" vertex="1">
                    <mxGeometry x="160" width="20" height="60" as="geometry"/>
                </mxCell>
                <mxCell id="49" value="..." style="rounded=0;whiteSpace=wrap;html=1;" parent="lU_j6ZDFAQMpKRKnnjfW-67" vertex="1">
                    <mxGeometry x="180" width="20" height="60" as="geometry"/>
                </mxCell>
                <mxCell id="52" value="..." style="rounded=0;whiteSpace=wrap;html=1;" parent="lU_j6ZDFAQMpKRKnnjfW-67" vertex="1">
                    <mxGeometry x="200" width="20" height="60" as="geometry"/>
                </mxCell>
                <mxCell id="lU_j6ZDFAQMpKRKnnjfW-68" value="end" style="ellipse;whiteSpace=wrap;html=1;aspect=fixed;" vertex="1" parent="1">
                    <mxGeometry x="360" y="30" width="80" height="80" as="geometry"/>
                </mxCell>
                <mxCell id="1SWhUuWWmsUW3ostEV8O-53" value="" style="shape=waypoint;size=6;pointerEvents=1;points=[];fillColor=#2a2a2a;resizable=0;rotatable=0;perimeter=centerPerimeter;snapToPoint=1;" vertex="1" parent="1">
                    <mxGeometry x="60" y="150" width="40" height="40" as="geometry"/>
                </mxCell>
                <mxCell id="lU_j6ZDFAQMpKRKnnjfW-73" style="edgeStyle=orthogonalEdgeStyle;rounded=0;orthogonalLoop=1;jettySize=auto;html=1;" edge="1" parent="1" source="7" target="20">
                    <mxGeometry relative="1" as="geometry"/>
                </mxCell>
                <mxCell id="lU_j6ZDFAQMpKRKnnjfW-87" value="server fd" style="edgeStyle=orthogonalEdgeStyle;rounded=0;orthogonalLoop=1;jettySize=auto;html=1;" edge="1" parent="1" source="lU_j6ZDFAQMpKRKnnjfW-78" target="lU_j6ZDFAQMpKRKnnjfW-82">
                    <mxGeometry relative="1" as="geometry"/>
                </mxCell>
                <mxCell id="lU_j6ZDFAQMpKRKnnjfW-97" value="client fd" style="edgeStyle=orthogonalEdgeStyle;rounded=0;orthogonalLoop=1;jettySize=auto;html=1;" edge="1" parent="1" source="lU_j6ZDFAQMpKRKnnjfW-78" target="F5cFHGVok0kFbbtlpRkR-59">
                    <mxGeometry relative="1" as="geometry">
                        <Array as="points">
                            <mxPoint x="540" y="400"/>
                        </Array>
                        <mxPoint x="680" y="400" as="targetPoint"/>
                    </mxGeometry>
                </mxCell>
                <mxCell id="lU_j6ZDFAQMpKRKnnjfW-78" value="서버 fd인가?" style="rhombus;whiteSpace=wrap;html=1;" vertex="1" parent="1">
                    <mxGeometry x="460" y="280" width="160" height="80" as="geometry"/>
                </mxCell>
                <mxCell id="1SWhUuWWmsUW3ostEV8O-60" value="Request" style="edgeStyle=orthogonalEdgeStyle;rounded=0;orthogonalLoop=1;jettySize=auto;html=1;" edge="1" parent="1" source="22" target="lU_j6ZDFAQMpKRKnnjfW-65">
                    <mxGeometry relative="1" as="geometry">
                        <Array as="points">
                            <mxPoint x="550" y="190"/>
                            <mxPoint x="550" y="190"/>
                        </Array>
                    </mxGeometry>
                </mxCell>
                <mxCell id="1SWhUuWWmsUW3ostEV8O-61" value="Response" style="edgeStyle=orthogonalEdgeStyle;rounded=0;orthogonalLoop=1;jettySize=auto;html=1;" edge="1" parent="1" source="lU_j6ZDFAQMpKRKnnjfW-65" target="22">
                    <mxGeometry relative="1" as="geometry">
                        <Array as="points">
                            <mxPoint x="520" y="210"/>
                            <mxPoint x="520" y="210"/>
                        </Array>
                    </mxGeometry>
                </mxCell>
                <mxCell id="UY9-4zruVd4tcD86wkYn-55" style="edgeStyle=orthogonalEdgeStyle;rounded=0;orthogonalLoop=1;jettySize=auto;html=1;entryX=0.5;entryY=1;entryDx=0;entryDy=0;" edge="1" parent="1" source="lU_j6ZDFAQMpKRKnnjfW-82" target="52">
                    <mxGeometry relative="1" as="geometry"/>
                </mxCell>
                <mxCell id="lU_j6ZDFAQMpKRKnnjfW-82" value="accept()" style="rounded=0;whiteSpace=wrap;html=1;" vertex="1" parent="1">
                    <mxGeometry x="680" y="290" width="160" height="60" as="geometry"/>
                </mxCell>
                <mxCell id="UY9-4zruVd4tcD86wkYn-56" style="edgeStyle=orthogonalEdgeStyle;rounded=0;orthogonalLoop=1;jettySize=auto;html=1;exitX=1;exitY=0.5;exitDx=0;exitDy=0;" edge="1" parent="1" source="F5cFHGVok0kFbbtlpRkR-59">
                    <mxGeometry relative="1" as="geometry">
                        <mxPoint x="870" y="400" as="targetPoint"/>
                        <Array as="points"/>
                        <mxPoint x="840" y="400" as="sourcePoint"/>
                    </mxGeometry>
                </mxCell>
                <mxCell id="aanPXfUzpohmq_zLsnBv-61" value="client 객체 생성" style="text;html=1;strokeColor=none;fillColor=none;align=center;verticalAlign=middle;whiteSpace=wrap;rounded=0;" vertex="1" parent="1">
                    <mxGeometry x="910" y="280" width="120" height="40" as="geometry"/>
                </mxCell>
                <mxCell id="aanPXfUzpohmq_zLsnBv-64" style="edgeStyle=orthogonalEdgeStyle;rounded=0;orthogonalLoop=1;jettySize=auto;html=1;exitX=1;exitY=0.5;exitDx=0;exitDy=0;entryX=0;entryY=0.5;entryDx=0;entryDy=0;" edge="1" parent="1" source="UY9-4zruVd4tcD86wkYn-58" target="aanPXfUzpohmq_zLsnBv-63">
                    <mxGeometry relative="1" as="geometry"/>
                </mxCell>
                <mxCell id="UY9-4zruVd4tcD86wkYn-58" value="&lt;span&gt;write event occur&lt;/span&gt;&lt;br&gt;&lt;span&gt;getResponse()&lt;/span&gt;" style="rounded=0;whiteSpace=wrap;html=1;" vertex="1" parent="1">
                    <mxGeometry x="230" y="480" width="160" height="60" as="geometry"/>
                </mxCell>
                <mxCell id="aanPXfUzpohmq_zLsnBv-63" value="응답 준비가 되었는가?&lt;br&gt;(응답 메시지 작성 완료?)" style="rounded=0;whiteSpace=wrap;html=1;" vertex="1" parent="1">
                    <mxGeometry x="450" y="480" width="160" height="60" as="geometry"/>
                </mxCell>
                <mxCell id="lU_j6ZDFAQMpKRKnnjfW-104" value="" style="group" vertex="1" connectable="0" parent="1">
                    <mxGeometry x="80" y="40" width="100" height="60" as="geometry"/>
                </mxCell>
                <mxCell id="lU_j6ZDFAQMpKRKnnjfW-100" value="" style="verticalLabelPosition=bottom;verticalAlign=top;html=1;shape=process;whiteSpace=wrap;rounded=1;size=0.14;arcSize=6;" vertex="1" parent="lU_j6ZDFAQMpKRKnnjfW-104">
                    <mxGeometry width="100" height="60" as="geometry"/>
                </mxCell>
                <mxCell id="lU_j6ZDFAQMpKRKnnjfW-103" value="Config&#10;Parsing" style="text;align=center;fontStyle=1;verticalAlign=middle;spacingLeft=3;spacingRight=3;strokeColor=none;rotatable=0;points=[[0,0.5],[1,0.5]];portConstraint=eastwest;" vertex="1" parent="lU_j6ZDFAQMpKRKnnjfW-104">
                    <mxGeometry x="10" y="17" width="80" height="26" as="geometry"/>
                </mxCell>
                <mxCell id="F5cFHGVok0kFbbtlpRkR-52" value="&#10;&#10;&lt;span style=&quot;color: rgb(240, 240, 240); font-family: helvetica; font-size: 12px; font-style: normal; font-weight: 400; letter-spacing: normal; text-align: center; text-indent: 0px; text-transform: none; word-spacing: 0px; background-color: rgb(42, 42, 42); display: inline; float: none;&quot;&gt;request&lt;/span&gt;&lt;br style=&quot;color: rgb(240, 240, 240); font-family: helvetica; font-size: 12px; font-style: normal; font-weight: 400; letter-spacing: normal; text-align: center; text-indent: 0px; text-transform: none; word-spacing: 0px; background-color: rgb(42, 42, 42);&quot;&gt;&lt;br style=&quot;color: rgb(240, 240, 240); font-family: helvetica; font-size: 12px; font-style: normal; font-weight: 400; letter-spacing: normal; text-align: center; text-indent: 0px; text-transform: none; word-spacing: 0px; background-color: rgb(42, 42, 42);&quot;&gt;&lt;span style=&quot;color: rgb(240, 240, 240); font-family: helvetica; font-size: 12px; font-style: normal; font-weight: 400; letter-spacing: normal; text-align: center; text-indent: 0px; text-transform: none; word-spacing: 0px; background-color: rgb(42, 42, 42); display: inline; float: none;&quot;&gt;status&lt;/span&gt;&lt;br style=&quot;color: rgb(240, 240, 240); font-family: helvetica; font-size: 12px; font-style: normal; font-weight: 400; letter-spacing: normal; text-align: center; text-indent: 0px; text-transform: none; word-spacing: 0px; background-color: rgb(42, 42, 42);&quot;&gt;&lt;span style=&quot;color: rgb(240, 240, 240); font-family: helvetica; font-size: 12px; font-style: normal; font-weight: 400; letter-spacing: normal; text-align: center; text-indent: 0px; text-transform: none; word-spacing: 0px; background-color: rgb(42, 42, 42); display: inline; float: none;&quot;&gt;header&lt;/span&gt;&lt;br style=&quot;color: rgb(240, 240, 240); font-family: helvetica; font-size: 12px; font-style: normal; font-weight: 400; letter-spacing: normal; text-align: center; text-indent: 0px; text-transform: none; word-spacing: 0px; background-color: rgb(42, 42, 42);&quot;&gt;&lt;span style=&quot;color: rgb(240, 240, 240); font-family: helvetica; font-size: 12px; font-style: normal; font-weight: 400; letter-spacing: normal; text-align: center; text-indent: 0px; text-transform: none; word-spacing: 0px; background-color: rgb(42, 42, 42); display: inline; float: none;&quot;&gt;body[size] 413err&lt;/span&gt;&#10;&#10;" style="strokeWidth=2;html=1;shape=mxgraph.flowchart.document2;whiteSpace=wrap;size=0.25;" vertex="1" parent="1">
                    <mxGeometry x="740" y="25" width="100" height="85" as="geometry"/>
                </mxCell>
                <mxCell id="F5cFHGVok0kFbbtlpRkR-53" value="read event occur" style="rounded=0;whiteSpace=wrap;html=1;" vertex="1" parent="1">
                    <mxGeometry x="220" y="290" width="160" height="60" as="geometry"/>
                </mxCell>
                <mxCell id="UY9-4zruVd4tcD86wkYn-66" value="&lt;h1&gt;Request flow&lt;/h1&gt;" style="text;html=1;strokeColor=none;fillColor=none;spacing=5;spacingTop=-20;whiteSpace=wrap;overflow=hidden;rounded=0;" vertex="1" parent="1">
                    <mxGeometry x="-40" y="800" width="160" height="40" as="geometry"/>
                </mxCell>
                <mxCell id="UY9-4zruVd4tcD86wkYn-69" value="&lt;h1&gt;Main flow&lt;/h1&gt;" style="text;html=1;strokeColor=none;fillColor=none;spacing=5;spacingTop=-20;whiteSpace=wrap;overflow=hidden;rounded=0;" vertex="1" parent="1">
                    <mxGeometry y="-120" width="190" height="120" as="geometry"/>
                </mxCell>
                <mxCell id="F5cFHGVok0kFbbtlpRkR-56" value="" style="group" vertex="1" connectable="0" parent="1">
                    <mxGeometry x="220" y="170" width="220" height="60" as="geometry"/>
                </mxCell>
                <mxCell id="lU_j6ZDFAQMpKRKnnjfW-63" value="..." style="rounded=0;whiteSpace=wrap;html=1;" vertex="1" parent="F5cFHGVok0kFbbtlpRkR-56">
                    <mxGeometry x="160" width="20" height="60" as="geometry"/>
                </mxCell>
                <mxCell id="lU_j6ZDFAQMpKRKnnjfW-64" value="..." style="rounded=0;whiteSpace=wrap;html=1;" vertex="1" parent="F5cFHGVok0kFbbtlpRkR-56">
                    <mxGeometry x="180" width="20" height="60" as="geometry"/>
                </mxCell>
                <mxCell id="lU_j6ZDFAQMpKRKnnjfW-65" value="..." style="rounded=0;whiteSpace=wrap;html=1;" vertex="1" parent="F5cFHGVok0kFbbtlpRkR-56">
                    <mxGeometry x="200" width="20" height="60" as="geometry"/>
                </mxCell>
                <mxCell id="7" value="server&lt;br&gt;객체 생성 (has location 객체)" style="rounded=0;whiteSpace=wrap;html=1;" parent="F5cFHGVok0kFbbtlpRkR-56" vertex="1">
                    <mxGeometry width="160" height="60" as="geometry"/>
                </mxCell>
                <mxCell id="UY9-4zruVd4tcD86wkYn-67" value="&lt;h1&gt;Response flow&lt;/h1&gt;" style="text;html=1;strokeColor=none;fillColor=none;spacing=5;spacingTop=-20;whiteSpace=wrap;overflow=hidden;rounded=0;" vertex="1" parent="1">
                    <mxGeometry x="877" y="780" width="190" height="120" as="geometry"/>
                </mxCell>
                <mxCell id="F5cFHGVok0kFbbtlpRkR-61" value="" style="group" vertex="1" connectable="0" parent="1">
                    <mxGeometry x="680" y="370" width="160" height="60" as="geometry"/>
                </mxCell>
                <mxCell id="F5cFHGVok0kFbbtlpRkR-59" value="" style="verticalLabelPosition=bottom;verticalAlign=top;html=1;shape=process;whiteSpace=wrap;rounded=1;size=0.14;arcSize=6;" vertex="1" parent="F5cFHGVok0kFbbtlpRkR-61">
                    <mxGeometry width="160" height="60" as="geometry"/>
                </mxCell>
                <mxCell id="F5cFHGVok0kFbbtlpRkR-60" value="Request&lt;br&gt;Flow" style="text;align=center;fontStyle=1;verticalAlign=middle;spacingLeft=3;spacingRight=3;strokeColor=none;rotatable=0;points=[[0,0.5],[1,0.5]];portConstraint=eastwest;rounded=1;html=1;" vertex="1" parent="F5cFHGVok0kFbbtlpRkR-61">
                    <mxGeometry x="40" y="17" width="80" height="26" as="geometry"/>
                </mxCell>
                <mxCell id="o01LwvFQtVRLgtBo7qC8-62" value="안끝남" style="rounded=0;whiteSpace=wrap;html=1;" vertex="1" parent="1">
                    <mxGeometry x="70" y="1103.03" width="120" height="40" as="geometry"/>
                </mxCell>
                <mxCell id="o01LwvFQtVRLgtBo7qC8-63" value="끝남" style="rounded=0;whiteSpace=wrap;html=1;" vertex="1" parent="1">
                    <mxGeometry x="70" y="1153.03" width="120" height="40" as="geometry"/>
                </mxCell>
                <mxCell id="o01LwvFQtVRLgtBo7qC8-64" value="오류" style="rounded=0;whiteSpace=wrap;html=1;" vertex="1" parent="1">
                    <mxGeometry x="70" y="1203.03" width="120" height="40" as="geometry"/>
                </mxCell>
                <mxCell id="UY9-4zruVd4tcD86wkYn-72" style="edgeStyle=orthogonalEdgeStyle;rounded=0;orthogonalLoop=1;jettySize=auto;html=1;" edge="1" parent="1" source="1SWhUuWWmsUW3ostEV8O-62" target="o01LwvFQtVRLgtBo7qC8-75">
                    <mxGeometry relative="1" as="geometry">
                        <Array as="points">
                            <mxPoint x="460" y="1040"/>
                            <mxPoint x="460" y="1040"/>
                        </Array>
                        <mxPoint x="410" y="1033" as="targetPoint"/>
                    </mxGeometry>
                </mxCell>
                <mxCell id="1SWhUuWWmsUW3ostEV8O-62" value="ParseHeader&lt;br&gt;(Request())&lt;br&gt;ParseBody" style="rounded=0;whiteSpace=wrap;html=1;" vertex="1" parent="1">
                    <mxGeometry x="480" y="920" width="160" height="150" as="geometry"/>
                </mxCell>
                <mxCell id="1SWhUuWWmsUW3ostEV8O-65" value="Return Values" style="text;html=1;strokeColor=none;fillColor=none;align=center;verticalAlign=middle;whiteSpace=wrap;rounded=0;" vertex="1" parent="1">
                    <mxGeometry x="75" y="1083.03" width="110" height="20" as="geometry"/>
                </mxCell>
                <mxCell id="o01LwvFQtVRLgtBo7qC8-94" style="edgeStyle=orthogonalEdgeStyle;rounded=0;orthogonalLoop=1;jettySize=auto;html=1;fontFamily=Courier New;fontSize=12;fontColor=#f0f0f0;" edge="1" parent="1" source="o01LwvFQtVRLgtBo7qC8-73" target="1SWhUuWWmsUW3ostEV8O-62">
                    <mxGeometry relative="1" as="geometry">
                        <Array as="points">
                            <mxPoint x="460" y="950"/>
                            <mxPoint x="460" y="950"/>
                        </Array>
                    </mxGeometry>
                </mxCell>
                <mxCell id="o01LwvFQtVRLgtBo7qC8-73" value="ReadHeader" style="rounded=0;whiteSpace=wrap;html=1;" vertex="1" parent="1">
                    <mxGeometry x="260" y="930" width="120" height="40" as="geometry"/>
                </mxCell>
                <mxCell id="o01LwvFQtVRLgtBo7qC8-96" style="edgeStyle=orthogonalEdgeStyle;rounded=0;orthogonalLoop=1;jettySize=auto;html=1;fontFamily=Courier New;fontSize=12;fontColor=#f0f0f0;" edge="1" parent="1" source="o01LwvFQtVRLgtBo7qC8-75" target="44">
                    <mxGeometry relative="1" as="geometry">
                        <Array as="points">
                            <mxPoint x="320" y="1090"/>
                            <mxPoint x="731" y="1090"/>
                        </Array>
                    </mxGeometry>
                </mxCell>
                <mxCell id="o01LwvFQtVRLgtBo7qC8-75" value="ReadBody" style="rounded=0;whiteSpace=wrap;html=1;" vertex="1" parent="1">
                    <mxGeometry x="260" y="1020" width="120" height="40" as="geometry"/>
                </mxCell>
                <mxCell id="o01LwvFQtVRLgtBo7qC8-97" style="edgeStyle=orthogonalEdgeStyle;rounded=0;orthogonalLoop=1;jettySize=auto;html=1;fontFamily=Courier New;fontSize=12;fontColor=#f0f0f0;" edge="1" parent="1" source="o01LwvFQtVRLgtBo7qC8-98" target="o01LwvFQtVRLgtBo7qC8-109">
                    <mxGeometry relative="1" as="geometry"/>
                </mxCell>
                <mxCell id="o01LwvFQtVRLgtBo7qC8-98" value="해더 받는 중" style="rounded=0;whiteSpace=wrap;html=1;" vertex="1" parent="1">
                    <mxGeometry x="-320" y="889.97" width="120" height="40.03" as="geometry"/>
                </mxCell>
                <mxCell id="o01LwvFQtVRLgtBo7qC8-99" style="edgeStyle=orthogonalEdgeStyle;rounded=0;orthogonalLoop=1;jettySize=auto;html=1;fontFamily=Courier New;fontSize=12;fontColor=#f0f0f0;" edge="1" parent="1" source="o01LwvFQtVRLgtBo7qC8-100" target="o01LwvFQtVRLgtBo7qC8-102">
                    <mxGeometry relative="1" as="geometry"/>
                </mxCell>
                <mxCell id="o01LwvFQtVRLgtBo7qC8-100" value="바디 받는 중" style="rounded=0;whiteSpace=wrap;html=1;" vertex="1" parent="1">
                    <mxGeometry x="-320" y="1110.03" width="120" height="40" as="geometry"/>
                </mxCell>
                <mxCell id="o01LwvFQtVRLgtBo7qC8-101" style="edgeStyle=orthogonalEdgeStyle;rounded=0;orthogonalLoop=1;jettySize=auto;html=1;fontFamily=Courier New;fontSize=12;fontColor=#f0f0f0;entryX=0.5;entryY=0;entryDx=0;entryDy=0;" edge="1" parent="1" source="o01LwvFQtVRLgtBo7qC8-102" target="o01LwvFQtVRLgtBo7qC8-98">
                    <mxGeometry relative="1" as="geometry">
                        <mxPoint x="-260" y="1270.0299999999997" as="targetPoint"/>
                        <Array as="points">
                            <mxPoint x="-260" y="1320"/>
                            <mxPoint x="-350" y="1320"/>
                            <mxPoint x="-350" y="870"/>
                            <mxPoint x="-260" y="870"/>
                        </Array>
                    </mxGeometry>
                </mxCell>
                <mxCell id="o01LwvFQtVRLgtBo7qC8-102" value="요청 처리하는 중" style="rounded=0;whiteSpace=wrap;html=1;" vertex="1" parent="1">
                    <mxGeometry x="-320" y="1190.03" width="120" height="40" as="geometry"/>
                </mxCell>
                <mxCell id="o01LwvFQtVRLgtBo7qC8-103" style="edgeStyle=orthogonalEdgeStyle;rounded=0;orthogonalLoop=1;jettySize=auto;html=1;fontFamily=Courier New;fontSize=12;fontColor=#f0f0f0;" edge="1" parent="1" source="o01LwvFQtVRLgtBo7qC8-104" target="o01LwvFQtVRLgtBo7qC8-106">
                    <mxGeometry relative="1" as="geometry"/>
                </mxCell>
                <mxCell id="o01LwvFQtVRLgtBo7qC8-104" value="&lt;h1 style=&quot;box-sizing: border-box; margin: 0px; letter-spacing: 0.035rem; line-height: 1.2; font-size: 12px; word-break: break-word; font-style: normal; text-indent: 0px; text-transform: none; word-spacing: 0px;&quot;&gt;411 Length Required&lt;/h1&gt;" style="text;whiteSpace=wrap;html=1;fontSize=12;fontFamily=Courier New;labelBackgroundColor=none;" vertex="1" parent="1">
                    <mxGeometry x="-190" y="1040" width="150" height="30" as="geometry"/>
                </mxCell>
                <mxCell id="o01LwvFQtVRLgtBo7qC8-105" style="edgeStyle=orthogonalEdgeStyle;rounded=0;orthogonalLoop=1;jettySize=auto;html=1;fontFamily=Courier New;fontSize=12;fontColor=#f0f0f0;" edge="1" parent="1" source="o01LwvFQtVRLgtBo7qC8-106" target="o01LwvFQtVRLgtBo7qC8-102">
                    <mxGeometry relative="1" as="geometry">
                        <Array as="points">
                            <mxPoint x="-115" y="1210.03"/>
                        </Array>
                    </mxGeometry>
                </mxCell>
                <mxCell id="o01LwvFQtVRLgtBo7qC8-106" value="연결 끊기" style="rounded=0;whiteSpace=wrap;html=1;" vertex="1" parent="1">
                    <mxGeometry x="-175" y="1110" width="120" height="40.03" as="geometry"/>
                </mxCell>
                <mxCell id="o01LwvFQtVRLgtBo7qC8-107" style="edgeStyle=orthogonalEdgeStyle;rounded=0;orthogonalLoop=1;jettySize=auto;html=1;fontFamily=Courier New;fontSize=12;fontColor=#f0f0f0;" edge="1" parent="1" source="o01LwvFQtVRLgtBo7qC8-109" target="o01LwvFQtVRLgtBo7qC8-100">
                    <mxGeometry relative="1" as="geometry"/>
                </mxCell>
                <mxCell id="o01LwvFQtVRLgtBo7qC8-108" style="edgeStyle=orthogonalEdgeStyle;rounded=0;orthogonalLoop=1;jettySize=auto;html=1;fontFamily=Courier New;fontSize=12;fontColor=#f0f0f0;" edge="1" parent="1" source="o01LwvFQtVRLgtBo7qC8-109" target="o01LwvFQtVRLgtBo7qC8-104">
                    <mxGeometry relative="1" as="geometry"/>
                </mxCell>
                <mxCell id="o01LwvFQtVRLgtBo7qC8-109" value="해더 처리하는 중" style="rounded=0;whiteSpace=wrap;html=1;" vertex="1" parent="1">
                    <mxGeometry x="-320" y="950" width="120" height="40.03" as="geometry"/>
                </mxCell>
                <mxCell id="o01LwvFQtVRLgtBo7qC8-110" value="Client Status" style="text;align=center;fontStyle=1;verticalAlign=middle;spacingLeft=3;spacingRight=3;strokeColor=none;rotatable=0;points=[[0,0.5],[1,0.5]];portConstraint=eastwest;rounded=1;labelBackgroundColor=none;fontFamily=Courier New;fontSize=12;fontColor=#f0f0f0;html=1;" vertex="1" parent="1">
                    <mxGeometry x="-300" y="840" width="80" height="26" as="geometry"/>
                </mxCell>
            </root>
        </mxGraphModel>
    </diagram>
    <diagram id="zQLkzcS9QAS0Wc6rx5BC" name="UML">
        <mxGraphModel dx="837" dy="548" grid="1" gridSize="10" guides="1" tooltips="1" connect="1" arrows="1" fold="1" page="1" pageScale="1" pageWidth="827" pageHeight="1169" math="0" shadow="0">
            <root>
                <mxCell id="-oQX7sRnQj_WbeR8cxpB-0"/>
                <mxCell id="-oQX7sRnQj_WbeR8cxpB-1" parent="-oQX7sRnQj_WbeR8cxpB-0"/>
                <mxCell id="qvEq-Agl0ULBCgF2F48f-0" value="Server" style="shape=umlLifeline;perimeter=lifelinePerimeter;whiteSpace=wrap;html=1;container=1;collapsible=0;recursiveResize=0;outlineConnect=0;fontFamily=Courier New;sketch=1;rounded=1;" parent="-oQX7sRnQj_WbeR8cxpB-1" vertex="1">
                    <mxGeometry x="370" y="40" width="100" height="300" as="geometry"/>
                </mxCell>
                <mxCell id="qvEq-Agl0ULBCgF2F48f-1" value="Client" style="shape=umlLifeline;perimeter=lifelinePerimeter;whiteSpace=wrap;html=1;container=1;collapsible=0;recursiveResize=0;outlineConnect=0;fontFamily=Courier New;sketch=1;rounded=1;" parent="-oQX7sRnQj_WbeR8cxpB-1" vertex="1">
                    <mxGeometry x="250" y="90" width="100" height="250" as="geometry"/>
                </mxCell>
                <mxCell id="qvEq-Agl0ULBCgF2F48f-2" value="Server Manager" style="shape=umlLifeline;perimeter=lifelinePerimeter;whiteSpace=wrap;html=1;container=1;collapsible=0;recursiveResize=0;outlineConnect=0;fontFamily=Courier New;sketch=1;rounded=1;" parent="-oQX7sRnQj_WbeR8cxpB-1" vertex="1">
                    <mxGeometry x="130" y="40" width="100" height="300" as="geometry"/>
                </mxCell>
                <mxCell id="qvEq-Agl0ULBCgF2F48f-3" value="Request" style="shape=umlLifeline;perimeter=lifelinePerimeter;whiteSpace=wrap;html=1;container=1;collapsible=0;recursiveResize=0;outlineConnect=0;fontFamily=Courier New;sketch=1;rounded=1;" parent="-oQX7sRnQj_WbeR8cxpB-1" vertex="1">
                    <mxGeometry x="490" y="40" width="100" height="300" as="geometry"/>
                </mxCell>
                <mxCell id="qvEq-Agl0ULBCgF2F48f-4" value="User Agent" style="shape=umlLifeline;participant=umlActor;perimeter=lifelinePerimeter;whiteSpace=wrap;html=1;container=1;collapsible=0;recursiveResize=0;verticalAlign=top;spacingTop=36;outlineConnect=0;fontFamily=Courier New;sketch=1;rounded=1;size=40;" parent="-oQX7sRnQj_WbeR8cxpB-1" vertex="1">
                    <mxGeometry x="50" y="40" width="20" height="1080" as="geometry"/>
                </mxCell>
                <mxCell id="t034cMmLfPtOGE_Xtv30-0" value="Response" style="shape=umlLifeline;perimeter=lifelinePerimeter;whiteSpace=wrap;html=1;container=1;collapsible=0;recursiveResize=0;outlineConnect=0;fontFamily=Courier New;sketch=1;rounded=1;" vertex="1" parent="-oQX7sRnQj_WbeR8cxpB-1">
                    <mxGeometry x="610" y="40" width="100" height="300" as="geometry"/>
                </mxCell>
                <mxCell id="t034cMmLfPtOGE_Xtv30-1" value="" style="html=1;points=[];perimeter=orthogonalPerimeter;" vertex="1" parent="-oQX7sRnQj_WbeR8cxpB-1">
                    <mxGeometry x="55" y="120" width="10" height="980" as="geometry"/>
                </mxCell>
                <mxCell id="YidVgYkpiL8hRGpcHyH6-0" value="Request" style="html=1;verticalAlign=bottom;endArrow=block;" edge="1" parent="-oQX7sRnQj_WbeR8cxpB-1">
                    <mxGeometry width="80" relative="1" as="geometry">
                        <mxPoint x="65" y="150" as="sourcePoint"/>
                        <mxPoint x="145" y="150" as="targetPoint"/>
                    </mxGeometry>
                </mxCell>
                <mxCell id="YidVgYkpiL8hRGpcHyH6-1" value="Request" style="html=1;verticalAlign=bottom;endArrow=block;" edge="1" parent="-oQX7sRnQj_WbeR8cxpB-1">
                    <mxGeometry width="80" relative="1" as="geometry">
                        <mxPoint x="65" y="300" as="sourcePoint"/>
                        <mxPoint x="145.0000000000001" y="300" as="targetPoint"/>
                    </mxGeometry>
                </mxCell>
            </root>
        </mxGraphModel>
    </diagram>
</mxfile>